:FULLY-SPECIFIED
:FORCE-ALL-JOINTS-BE-3DOF
:DEGREES
102
root 7.07591 16.8386 -27.0796 1.26508 7.23275 -3.34092
lfemur -22.7643 9.71084 -14.2297
ltibia 37.9957 0 0
lfoot -16.0875 -3.27891 0
ltoes 26.698 0 0
rfemur -36.81 -7.46916 15.9791
rtibia 37.1827 0 0
rfoot -11.159 -4.5712 0
rtoes -10.555 0 0
lowerback 5.12305 1.05557 0.623852
upperback 1.21825 1.25783 0.986501
thorax -1.33591 0.620201 0.996261
lowerneck -11.1644 -2.9202 2.26643
upperneck -2.42084 -4.13064 1.2496
head 1.10824 -2.05733 -0.147856
lclavicle -3.65655e-14 1.04532e-14 0
lhumerus -41.4452 -11.3447 92.0125
lradius 46.4682 0 0
lwrist 10.3485 0 0
lhand -2.62444 4.54007 0
lfingers 7.12502 0 0
lthumb 23.0487 32.9043 0
rclavicle -3.65655e-14 1.04532e-14 0
rhumerus -39.2935 0.2658 -73.8693
rradius 53.0444 0 0
rwrist 4.68546 0 0
rhand -10.8654 -18.7822 0
rfingers 7.12502 0 0
rthumb 15.1153 -47.7036 0
103
root 7.11771 16.8451 -27.0542 0.771263 7.40154 -3.20625
lfemur -21.9555 9.62803 -14.3724
ltibia 37.5312 0 0
lfoot -15.9302 -3.6768 0
ltoes 27.0323 0 0
rfemur -38.0636 -7.7234 15.61
rtibia 37.7096 0 0
rfoot -10.2739 -3.8967 0
rtoes -10.611 0 0
lowerback 5.559 0.918024 0.486234
upperback 1.38162 1.07091 1.01337
thorax -1.40908 0.527197 1.10967
lowerneck -11.2019 -2.88962 2.21405
upperneck -2.27151 -4.08775 1.23698
head 1.16436 -2.03401 -0.143908
lclavicle -3.80139e-14 1.03756e-14 0
lhumerus -41.3765 -11.4936 92.0327
lradius 46.5605 0 0
lwrist 10.4069 0 0
lhand -2.17927 4.65656 0
lfingers 7.12502 0 0
lthumb 23.4755 32.9641 0
rclavicle -3.80139e-14 1.03756e-14 0
rhumerus -39.3958 0.103007 -73.0471
rradius 53.5203 0 0
rwrist 4.5457 0 0
rhand -10.1971 -18.6541 0
rfingers 7.12502 0 0
rthumb 15.7583 -47.5208 0
104
root 7.1595 16.8517 -27.0288 0.277447 7.57033 -3.07157
lfemur -21.1466 9.54523 -14.5151
ltibia 37.0666 0 0
lfoot -15.7728 -4.0747 0
ltoes 27.3665 0 0
rfemur -39.3173 -7.97764 15.2409
rtibia 38.2364 0 0
rfoot -9.38872 -3.2222 0
rtoes -10.667 0 0
lowerback 5.99496 0.780476 0.348616
upperback 1.54498 0.883996 1.04024
thorax -1.48225 0.434193 1.22309
lowerneck -11.2393 -2.85904 2.16167
upperneck -2.12217 -4.04486 1.22436
head 1.22048 -2.01069 -0.139959
lclavicle -3.94624e-14 1.0298e-14 0
lhumerus -41.3078 -11.6424 92.053
lradius 46.6529 0 0
lwrist 10.4654 0 0
lhand -1.73409 4.77306 0
lfingers 7.12502 0 0
lthumb 23.9022 33.0239 0
rclavicle -3.94624e-14 1.0298e-14 0
rhumerus -39.4982 -0.0597866 -72.2249
rradius 53.9961 0 0
rwrist 4.40593 0 0
rhand -9.52881 -18.526 0
rfingers 7.12502 0 0
rthumb 16.4013 -47.3381 0
105
root 7.2013 16.8582 -27.0034 -0.21637 7.73912 -2.93689
lfemur -20.3378 9.46242 -14.6578
ltibia 36.6021 0 0
lfoot -15.6155 -4.47259 0
ltoes 27.7008 0 0
rfemur -40.5709 -8.23188 14.8719
rtibia 38.7633 0 0
rfoot -8.50359 -2.5477 0
rtoes -10.723 0 0
lowerback 6.43091 0.642928 0.210998
upperback 1.70835 0.697077 1.06711
thorax -1.55541 0.341189 1.3365
lowerneck -11.2768 -2.82846 2.10929
upperneck -1.97284 -4.00197 1.21174
head 1.2766 -1.98737 -0.13601
lclavicle -4.09108e-14 1.02205e-14 0
lhumerus -41.2391 -11.7912 92.0732
lradius 46.7452 0 0
lwrist 10.5238 0 0
lhand -1.28892 4.88955 0
lfingers 7.12502 0 0
lthumb 24.329 33.0837 0
rclavicle -4.09108e-14 1.02205e-14 0
rhumerus -39.6005 -0.22258 -71.4027
rradius 54.472 0 0
rwrist 4.26617 0 0
rhand -8.86049 -18.3979 0
rfingers 7.12502 0 0
rthumb 17.0442 -47.1553 0
106
root 7.2431 16.8647 -26.978 -0.710187 7.90791 -2.80222
lfemur -19.5289 9.37961 -14.8005
ltibia 36.1375 0 0
lfoot -15.4582 -4.87048 0
ltoes 28.035 0 0
rfemur -41.8245 -8.48613 14.5028
rtibia 39.2902 0 0
rfoot -7.61845 -1.8732 0
rtoes -10.779 0 0
lowerback 6.86686 0.505379 0.0733805
upperback 1.87172 0.510158 1.09398
thorax -1.62858 0.248185 1.44991
lowerneck -11.3142 -2.79788 2.0569
upperneck -1.8235 -3.95908 1.19912
head 1.33272 -1.96405 -0.132061
lclavicle -4.23593e-14 1.01429e-14 0
lhumerus -41.1704 -11.9401 92.0935
lradius 46.8376 0 0
lwrist 10.5823 0 0
lhand -0.843751 5.00605 0
lfingers 7.12502 0 0
lthumb 24.7557 33.1435 0
rclavicle -4.23593e-14 1.01429e-14 0
rhumerus -39.7029 -0.385373 -70.5805
rradius 54.9478 0 0
rwrist 4.12641 0 0
rhand -8.19217 -18.2698 0
rfingers 7.12502 0 0
rthumb 17.6872 -46.9726 0
107
root 7.2849 16.8712 -26.9527 -1.204 8.07669 -2.66754
lfemur -18.7201 9.2968 -14.9432
ltibia 35.673 0 0
lfoot -15.3008 -5.26837 0
ltoes 28.3693 0 0
rfemur -43.0781 -8.74037 14.1337
rtibia 39.8171 0 0
rfoot -6.73332 -1.1987 0
rtoes -10.835 0 0
lowerback 7.30281 0.367831 -0.0642373
upperback 2.03509 0.323239 1.12086
thorax -1.70175 0.15518 1.56332
lowerneck -11.3517 -2.7673 2.00452
upperneck -1.67417 -3.91619 1.18651
head 1.38884 -1.94074 -0.128113
lclavicle -4.38078e-14 1.00653e-14 0
lhumerus -41.1018 -12.0889 92.1138
lradius 46.93 0 0
lwrist 10.6407 0 0
lhand -0.398579 5.12255 0
lfingers 7.12502 0 0
lthumb 25.1824 33.2034 0
rclavicle -4.38078e-14 1.00653e-14 0
rhumerus -39.8052 -0.548166 -69.7583
rradius 55.4236 0 0
rwrist 3.98664 0 0
rhand -7.52386 -18.1418 0
rfingers 7.12502 0 0
rthumb 18.3302 -46.7898 0
108
root 7.32669 16.8777 -26.9273 -1.69782 8.24548 -2.53286
lfemur -17.9112 9.21399 -15.0859
ltibia 35.2084 0 0
lfoot -15.1435 -5.66626 0
ltoes 28.7036 0 0
rfemur -44.3317 -8.99461 13.7646
rtibia 40.344 0 0
rfoot -5.84819 -0.5242 0
rtoes -10.891 0 0
lowerback 7.73876 0.230283 -0.201855
upperback 2.19846 0.13632 1.14773
thorax -1.77492 0.0621763 1.67674
lowerneck -11.3891 -2.73672 1.95214
upperneck -1.52483 -3.8733 1.17389
head 1.44496 -1.91742 -0.124164
lclavicle -4.52562e-14 9.98773e-15 0
lhumerus -41.0331 -12.2377 92.134
lradius 47.0223 0 0
lwrist 10.6992 0 0
lhand 0.0465927 5.23904 0
lfingers 7.12502 0 0
lthumb 25.6092 33.2632 0
rclavicle -4.52562e-14 9.98773e-15 0
rhumerus -39.9076 -0.710959 -68.9361
rradius 55.8995 0 0
rwrist 3.84688 0 0
rhand -6.85554 -18.0137 0
rfingers 7.12502 0 0
rthumb 18.9731 -46.6071 0
109
root 7.36849 16.8843 -26.9019 -2.19164 8.41427 -2.39819
lfemur -17.1023 9.13118 -15.2286
ltibia 34.7438 0 0
lfoot -14.9861 -6.06415 0
ltoes 29.0378 0 0
rfemur -45.5853 -9.24886 13.3956
rtibia 40.8709 0 0
rfoot -4.96306 0.1503 0
rtoes -10.9471 0 0
lowerback 8.17472 0.0927344 -0.339473
upperback 2.36183 -0.0505983 1.1746
thorax -1.84809 -0.0308278 1.79015
lowerneck -11.4265 -2.70614 1.89976
upperneck -1.3755 -3.83042 1.16127
head 1.50108 -1.8941 -0.120215
lclavicle -4.67047e-14 9.91015e-15 0
lhumerus -40.9644 -12.3865 92.1543
lradius 47.1147 0 0
lwrist 10.7576 0 0
lhand 0.491764 5.35554 0
lfingers 7.12502 0 0
lthumb 26.0359 33.323 0
rclavicle -4.67047e-14 9.91015e-15 0
rhumerus -40.01 -0.873752 -68.114
rradius 56.3753 0 0
rwrist 3.70711 0 0
rhand -6.18722 -17.8856 0
rfingers 7.12502 0 0
rthumb 19.6161 -46.4243 0
110
root 7.41029 16.8908 -26.8765 -2.68545 8.58306 -2.26351
lfemur -16.2935 9.04838 -15.3713
ltibia 34.2793 0 0
lfoot -14.8288 -6.46204 0
ltoes 29.3721 0 0
rfemur -46.8389 -9.5031 13.0265
rtibia 41.3978 0 0
rfoot -4.07792 0.8248 0
rtoes -11.0031 0 0
lowerback 8.61067 -0.0448139 -0.477091
upperback 2.5252 -0.237517 1.20147
thorax -1.92125 -0.123832 1.90356
lowerneck -11.464 -2.67556 1.84737
upperneck -1.22616 -3.78753 1.14865
head 1.55719 -1.87078 -0.116266
lclavicle -4.81531e-14 9.83258e-15 0
lhumerus -40.8957 -12.5354 92.1745
lradius 47.2071 0 0
lwrist 10.8161 0 0
lhand 0.936936 5.47204 0
lfingers 7.12502 0 0
lthumb 26.4626 33.3828 0
rclavicle -4.81531e-14 9.83258e-15 0
rhumerus -40.1123 -1.03655 -67.2918
rradius 56.8511 0 0
rwrist 3.56735 0 0
rhand -5.5189 -17.7575 0
rfingers 7.12502 0 0
rthumb 20.2591 -46.2416 0
111
root 7.45208 16.8973 -26.8511 -3.17927 8.75185 -2.12883
lfemur -15.4846 8.96557 -15.514
ltibia 33.8147 0 0
lfoot -14.6715 -6.85993 0
ltoes 29.7063 0 0
rfemur -48.0925 -9.75734 12.6574
rtibia 41.9247 0 0
rfoot -3.19279 1.4993 0
rtoes -11.0591 0 0
lowerback 9.04662 -0.182362 -0.614709
upperback 2.68857 -0.424436 1.22834
thorax -1.99442 -0.216836 2.01698
lowerneck -11.5014 -2.64498 1.79499
upperneck -1.07683 -3.74464 1.13603
head 1.61331 -1.84746 -0.112318
lclavicle -4.96016e-14 9.755e-15 0
lhumerus -40.827 -12.6842 92.1948
lradius 47.2994 0 0
lwrist 10.8745 0 0
lhand 1.38211 5.58853 0
lfingers 7.12502 0 0
lthumb 26.8894 33.4426 0
rclavicle -4.96016e-14 9.755e-15 0
rhumerus -40.2147 -1.19934 -66.4696
rradius 57.327 0 0
rwrist 3.42759 0 0
rhand -4.85058 -17.6294 0
rfingers 7.12502 0 0
rthumb 20.902 -46.0588 0
112
root 7.49388 16.9038 -26.8257 -3.67309 8.92064 -1.99416
lfemur -14.6758 8.88276 -15.6567
ltibia 33.3502 0 0
lfoot -14.5141 -7.25782 0
ltoes 30.0406 0 0
rfemur -49.3462 -10.0116 12.2883
rtibia 42.4516 0 0
rfoot -2.30766 2.1738 0
rtoes -11.1151 0 0
lowerback 9.48257 -0.31991 -0.752326
upperback 2.85194 -0.611355 1.25521
thorax -2.06759 -0.30984 2.13039
lowerneck -11.5389 -2.6144 1.74261
upperneck -0.927496 -3.70175 1.12341
head 1.66943 -1.82414 -0.108369
lclavicle -5.10501e-14 9.67743e-15 0
lhumerus -40.7583 -12.833 92.2151
lradius 47.3918 0 0
lwrist 10.9329 0 0
lhand 1.82728 5.70503 0
lfingers 7.12502 0 0
lthumb 27.3161 33.5025 0
rclavicle -5.10501e-14 9.67743e-15 0
rhumerus -40.317 -1.36213 -65.6474
rradius 57.8028 0 0
rwrist 3.28782 0 0
rhand -4.18226 -17.5014 0
rfingers 7.12502 0 0
rthumb 21.545 -45.8761 0
113
root 7.53568 16.9104 -26.8003 -4.1669 9.08943 -1.85948
lfemur -13.8669 8.79995 -15.7994
ltibia 32.8856 0 0
lfoot -14.3568 -7.65571 0
ltoes 30.3749 0 0
rfemur -50.5998 -10.2658 11.9193
rtibia 42.9785 0 0
rfoot -1.42253 2.8483 0
rtoes -11.1711 0 0
lowerback 9.91853 -0.457459 -0.889944
upperback 3.01531 -0.798273 1.28208
thorax -2.14076 -0.402844 2.2438
lowerneck -11.5763 -2.58382 1.69023
upperneck -0.778161 -3.65886 1.11079
head 1.72555 -1.80082 -0.10442
lclavicle -5.24985e-14 9.59985e-15 0
lhumerus -40.6896 -12.9819 92.2353
lradius 47.4842 0 0
lwrist 10.9914 0 0
lhand 2.27245 5.82153 0
lfingers 7.12502 0 0
lthumb 27.7428 33.5623 0
rclavicle -5.24985e-14 9.59985e-15 0
rhumerus -40.4194 -1.52493 -64.8252
rradius 58.2786 0 0
rwrist 3.14806 0 0
rhand -3.51394 -17.3733 0
rfingers 7.12502 0 0
rthumb 22.188 -45.6933 0
114
root 7.57748 16.9169 -26.775 -4.66072 9.25821 -1.7248
lfemur -13.0581 8.71714 -15.9421
ltibia 32.4211 0 0
lfoot -14.1995 -8.0536 0
ltoes 30.7091 0 0
rfemur -51.8534 -10.5201 11.5502
rtibia 43.5054 0 0
rfoot -0.537394 3.5228 0
rtoes -11.2271 0 0
lowerback 10.3545 -0.595007 -1.02756
upperback 3.17868 -0.985192 1.30895
thorax -2.21392 -0.495849 2.35721
lowerneck -11.6138 -2.55325 1.63784
upperneck -0.628826 -3.61597 1.09818
head 1.78167 -1.77751 -0.100471
lclavicle -5.3947e-14 9.52228e-15 0
lhumerus -40.621 -13.1307 92.2556
lradius 47.5765 0 0
lwrist 11.0498 0 0
lhand 2.71762 5.93802 0
lfingers 7.12502 0 0
lthumb 28.1696 33.6221 0
rclavicle -5.3947e-14 9.52228e-15 0
rhumerus -40.5217 -1.68772 -64.003
rradius 58.7545 0 0
rwrist 3.0083 0 0
rhand -2.84563 -17.2452 0
rfingers 7.12502 0 0
rthumb 22.8309 -45.5106 0
115
root 7.61927 16.9234 -26.7496 -5.15454 9.427 -1.59013
lfemur -12.2492 8.63433 -16.0848
ltibia 31.9565 0 0
lfoot -14.0421 -8.45149 0
ltoes 31.0434 0 0
rfemur -53.107 -10.7743 11.1811
rtibia 44.0323 0 0
rfoot 0.347738 4.1973 0
rtoes -11.2832 0 0
lowerback 10.7904 -0.732555 -1.16518
upperback 3.34205 -1.17211 1.33582
thorax -2.28709 -0.588853 2.47063
lowerneck -11.6512 -2.52267 1.58546
upperneck -0.479492 -3.57308 1.08556
head 1.83779 -1.75419 -0.0965225
lclavicle -5.53955e-14 9.4447e-15 0
lhumerus -40.5523 -13.2795 92.2759
lradius 47.6689 0 0
lwrist 11.1083 0 0
lhand 3.16279 6.05452 0
lfingers 7.12502 0 0
lthumb 28.5963 33.6819 0
rclavicle -5.53955e-14 9.4447e-15 0
rhumerus -40.6241 -1.85051 -63.1808
rradius 59.2303 0 0
rwrist 2.86853 0 0
rhand -2.17731 -17.1171 0
rfingers 7.12502 0 0
rthumb 23.4739 -45.3278 0
